<svg id="Layer_1" data-name="Layer 1" xmlns="http://www.w3.org/2000/svg" viewBox="0 0 595.28 310.83"><defs><style>.cls-1{fill:#4a494a;}.cls-2,.cls-5{fill:none;stroke-miterlimit:10;stroke-width:3px;}.cls-2{stroke:#1a1a1a;}.cls-3{fill:#404040;}.cls-4{fill:#fff;}.cls-5{stroke:#010101;}.cls-6{fill:#010101;}</style></defs><path class="cls-1" d="M180.17,150l-33.73,1.24-57.18-7.39S56.09,161.43,0,315c0,0,23.75-27,37.67-22.11l26.2-4.92s47.5-26.2,100.73-7.37l59.53-51.18,1-32.17L205.72,169.1Z"/><path class="cls-2" d="M84.6,154.46S56.91,261.33,63.87,287.94"/><path class="cls-2" d="M166,275.86S124,156.13,89.42,150"/><path class="cls-1" d="M360.8,100.32l30.82-13.77,48.05-31.86s37.53,1.17,155.61,114.22c0,0-33.24-13.78-43.56-3.23L526,172.84s-54.18-2.57-93.64,37.81l-76-19.66-15.1-28.43,5-33.81Z"/><path class="cls-2" d="M448.55,62.19s72,83.69,77.48,110.65"/><path class="cls-2" d="M429.07,207S414,81.05,442.24,60.29"/><path class="cls-3" d="M216.22,189.93S165.91,117,165.09,108c0,0,69.56,22.14,77.36,18.44S216.22,189.93,216.22,189.93Z"/><path class="cls-4" d="M218.36,174.39S192.11,130.13,191.3,126l38.84,16Z"/><path class="cls-3" d="M294.39,113.93S357.44,32,361.54,27.13V134.42Z"/><polygon class="cls-4" points="307.13 114.08 344.34 58.25 358.26 127.03 307.13 114.08"/><path class="cls-3" d="M255.9,117.21c1.53-.59,60.6-33.58,116.28,18s10.48,134.69-14.74,137.57c-28.66,3.28-128.56,26.21-141.66-74.51C215.78,198.28,209.22,135.22,255.9,117.21Z"/><path class="cls-5" d="M334.9,204s-13.49,16.37-27.77,22.5-29.94-2.85-29.94-2.85"/><circle class="cls-6" cx="259.18" cy="181.08" r="26.2"/><circle class="cls-4" cx="264.5" cy="172.48" r="6.96"/><circle class="cls-4" cx="247.02" cy="194.07" r="3.14"/><circle class="cls-6" cx="334.51" cy="161.43" r="23.75"/><circle class="cls-4" cx="341.47" cy="154.46" r="6.96"/><circle class="cls-4" cx="331.91" cy="172.24" r="3.14"/><polygon class="cls-4" points="280.82 228.65 290.29 244.95 290.29 231.86 280.82 228.65"/><polygon class="cls-4" points="327.96 216.33 339.43 226.12 335.05 209.91 327.96 216.33"/></svg>