<svg id="Layer_1" data-name="Layer 1" xmlns="http://www.w3.org/2000/svg" viewBox="0 0 595.28 841.89"><defs><style>.cls-1{fill:#575757;}.cls-2{fill:#2c3a96;}.cls-3{fill:#0c8a43;}.cls-10,.cls-4{fill:none;stroke-miterlimit:10;}.cls-4{stroke:#010101;}.cls-5{fill:#676767;}.cls-6{fill:#fff;}.cls-7{fill:#010101;}.cls-8{fill:#333;}.cls-9{fill:#c789bc;}.cls-10{stroke:#e8e8e8;}</style></defs><path class="cls-1" d="M176.76,141.84S351.65,155,317.8,14c0,0,118.1-23.74,167.37,41.37,52.66,69.58,66,163-42.44,239.13-117.41,82.45-220.65-3.91-239.64-39.79C186.16,222.7,176.76,190.73,176.76,141.84Z"/><path class="cls-1" d="M462.61,709.77l30.08,7.72,26.33-19s60.14-5.26,65.8,19S601.77,770,481.41,800s-113.82,15-133.07-49.84l18.36-32.91,63.94-16.92Z"/><path class="cls-1" d="M189.92,723.22l-15-13.45s-20.69,0-15,32,33.85,92.15,90.27,92.15,48.9-43.73,35.73-54.77l-16.92-18.57,3.76-30.09-43.26-33.85Z"/><path class="cls-2" d="M417.75,592.7l-19.08-22.09c-13.17,7.52-32,50.77-32,50.77l-33.85-50.77c-13.17,5.64-30.09,52.66-30.09,52.66l-37.62-39.5-30.08,47c1.54,3.48,3.19,6.88,4.92,10.21h0l-50.06,89.46L219.7,706.9v30.73l25-18v27.54l20.42-18.58,3.77,32,30.61-48.07c33.73,27.65,65.3,40.54,65.3,40.54l22.56-36.19,35.73,24.91,9.94-32h59.64Z"/><path class="cls-1" d="M285.83,452.13s63.68,56,156.9,10.16,81.93-57.17,81.93-57.17,1.89,43.25,35.74,43.25,28.2-92.15,28.2-92.15,13.17-13.16-18.8-15-62.06-5.64-62.06-5.64-90.27-13.17-118.48,15S285.83,452.13,285.83,452.13Z"/><path class="cls-3" d="M283.73,313.34s-122,163.24-48.67,317.45l30.08-47,37.62,39.5s13.16-45.14,30.09-52.66l33.85,50.77s22.56-48.89,32-50.77l39.49,43.25s15-129.39-9.41-141.8L410,476.58,393,459.65l30.09-22.56L394.9,407l28.21-22.57L396.79,348.7l31.45-48.05S304.19,340,283.73,313.34Z"/><path class="cls-4" d="M235.06,630.79C231,624.55,305.88,734.5,358.23,750.2"/><path class="cls-5" d="M426.87,301.69s37.62-11.29,107.2-5.65c0,0,45.14,2.94,45.14,48.49l-54.65-5s-3.24-2.58-.63-5.15l-4.56,4.6s-69.52-15.53-120.5,5.57"/><circle class="cls-6" cx="295.23" cy="162.52" r="33.85"/><circle class="cls-6" cx="428.76" cy="158.76" r="33.85"/><circle class="cls-7" cx="430.64" cy="158.76" r="7.52"/><path class="cls-8" d="M270.79,267.84s-9.63-19,23.82-36.06c13.29-6.8,33.4-13.3,63.62-18.2,106.26-17.21,92,27.13,92,27.13s-6.29,43.13-90.06,45.47S270.79,267.84,270.79,267.84Z"/><path class="cls-6" d="M300.88,239.63s5.59,9.2,14.08,8.36,13.42-4.6,9.07-21.53l-23.15,7.41Z"/><path class="cls-6" d="M425.31,223s-5.59,9.21-14.08,8.37-13.42-4.6-9.07-21.53l23.15,7.4Z"/><path class="cls-6" d="M355.19,279.18s3.53-10.18,12-11.14,14.09,1.67,13.41,19.13l-24.2-2.36Z"/><path class="cls-9" d="M308.4,15.84S263.26,4.55,253.86,44.05c0,0-17.24-5.64-30.24,0s-28.06,22.56-16.77,45.13c0,0-24.45-9.4-33.85,9.4s-2.9,38.53,11.71,41.83S335.22,157,320.87,22.49Z"/><path class="cls-1" d="M180.5,189.87s-33.25-32.83-64.57,0,42,102.41,87.16,64.8Z"/><path class="cls-1" d="M515.26,111.75s28.21-33.85,54.54-9.41,12.11,74.19-50.37,79.41Z"/><circle class="cls-7" cx="295.23" cy="162.52" r="7.52"/><path class="cls-5" d="M153.25,242.45s-16.92-37.61,20.69-41.37v8.72S155.13,206.72,153.25,242.45Z"/><path class="cls-5" d="M515.26,135.26l4.46,7.11s5.88-7.11,32.21,6c0,0-10.87-18.81-27.06-19.75S515.26,135.26,515.26,135.26Z"/><line class="cls-10" x1="177.7" y1="370.33" x2="74.27" y2="368.45"/><line class="cls-10" x1="190.86" y1="424.86" x2="140.09" y2="419.22"/><line class="cls-10" x1="190.86" y1="481.28" x2="38.54" y2="481.28"/><line class="cls-10" x1="62.98" y1="421.1" x2="2.8" y2="421.1"/></svg>