<svg id="Layer_1" data-name="Layer 1" xmlns="http://www.w3.org/2000/svg" viewBox="0 0 595.28 306.16"><defs><style>.cls-1{fill:#575757;}.cls-2{fill:#fff;}.cls-3{fill:#010101;}.cls-4{fill:#c789bc;}.cls-5{fill:#676767;}.cls-6{fill:#404040;}</style></defs><path class="cls-1" d="M539.14,230.15c38.36-22.91,42.37-65.85,16.32-90.05-34.77-32.28-72,12.42-72,12.42l4.62,77.63Z"/><path class="cls-1" d="M495.64,230.15c3.94-54-17.7-106.89-51.94-152.13-65.07-86-221-54.64-221-54.64C267.37,209.64,36.4,192.26,36.4,192.26c0,13.56.58,26.09,1.65,37.89Z"/><path class="cls-2" d="M411.06,230.15a44.7,44.7,0,1,0-83.74,0Z"/><path class="cls-2" d="M236.25,230.15a44.7,44.7,0,1,0-86.78,0Z"/><circle class="cls-3" cx="371.68" cy="214.61" r="9.93"/><path class="cls-4" d="M210.24,25.86s-59.6-14.9-72,37.25c0,0-22.76-7.45-39.94,0S61.23,92.92,76.13,122.72c0,0-32.28-12.42-44.7,12.42S27.61,186,46.9,190.38,245.67,212.32,226.72,34.65Z"/><circle class="cls-3" cx="192.86" cy="219.58" r="9.93"/><path class="cls-5" d="M483.44,183.57l5.88,9.39s7.78-9.39,42.55,8c0,0-14.37-24.83-35.75-26.08S483.44,183.57,483.44,183.57Z"/><path class="cls-6" d="M595.28,227.67c0,32.69-18.91,59.19-42.22,59.19s-42.23-26.5-42.23-59.19"/><path class="cls-6" d="M84.44,229.19c0,32.69-18.9,59.19-42.22,59.19S0,261.88,0,229.19"/></svg>